<?xml version="1.0" encoding="UTF-8"?>
<svg version="1.1" xmlns="http://www.w3.org/2000/svg" width="200" height="200">
<path d="M0 0 C5.02775928 2.82930941 8.16279617 6.94698667 10.5546875 12.15625 C10.5546875 12.81625 10.5546875 13.47625 10.5546875 14.15625 C11.26077148 14.13530273 11.96685547 14.11435547 12.69433594 14.09277344 C15.89764126 14.00955702 19.10071913 13.95757215 22.3046875 13.90625 C23.97144531 13.85597656 23.97144531 13.85597656 25.671875 13.8046875 C26.74179688 13.79179688 27.81171875 13.77890625 28.9140625 13.765625 C29.89858398 13.74467773 30.88310547 13.72373047 31.89746094 13.70214844 C35.25109446 14.27526111 36.41390771 15.58909083 38.5546875 18.15625 C36.8046875 23.03125 36.8046875 23.03125 34.5546875 24.15625 C32.74126908 24.24096364 30.92474589 24.26346083 29.109375 24.25390625 C28.03300781 24.25068359 26.95664063 24.24746094 25.84765625 24.24414062 C24.71972656 24.23576172 23.59179688 24.22738281 22.4296875 24.21875 C21.29402344 24.21423828 20.15835938 24.20972656 18.98828125 24.20507812 C16.17703112 24.19326615 13.3658852 24.17679507 10.5546875 24.15625 C10.12929688 25.54263672 10.12929688 25.54263672 9.6953125 26.95703125 C7.95382876 31.8415353 5.17643265 34.93994114 1.0546875 38.03125 C-5.44736915 40.12119678 -12.47107048 40.16536783 -18.9453125 37.96875 C-24.01173806 34.29559147 -26.75786312 30.7712379 -29.4453125 25.15625 C-30.53890076 25.15260437 -31.63248901 25.14895874 -32.75921631 25.14520264 C-43.05944999 25.10827993 -53.35938396 25.05053718 -63.6593895 24.97234726 C-68.95490519 24.93281853 -74.25025325 24.90065653 -79.54589844 24.88525391 C-84.65541644 24.87012287 -89.76447374 24.83574062 -94.87378693 24.78794098 C-96.82420093 24.77309046 -98.7746807 24.76520689 -100.72515106 24.76436615 C-103.45496381 24.76200576 -106.18349373 24.73500174 -108.91308594 24.70214844 C-109.72156982 24.7071788 -110.53005371 24.71220917 -111.36303711 24.71739197 C-115.07097355 24.64823422 -117.03999439 24.48170565 -119.97857666 22.12213135 C-120.46259949 21.4733905 -120.94662231 20.82464966 -121.4453125 20.15625 C-119.6953125 15.28125 -119.6953125 15.28125 -117.4453125 14.15625 C-114.66950721 14.0336186 -111.91716382 13.97052265 -109.14013672 13.95092773 C-107.85222733 13.93607834 -107.85222733 13.93607834 -106.53829956 13.92092896 C-103.69222803 13.88926961 -100.84613979 13.86453902 -98 13.83984375 C-96.02987222 13.81927805 -94.0597489 13.79828168 -92.08963013 13.77687073 C-86.89796548 13.72161039 -81.70626076 13.6722186 -76.51452637 13.62402344 C-71.21928327 13.57383731 -65.92409855 13.51813619 -60.62890625 13.46289062 C-50.23442484 13.3552606 -39.8398928 13.2538264 -29.4453125 13.15625 C-28.99800781 12.22167969 -28.55070312 11.28710938 -28.08984375 10.32421875 C-22.54504996 -0.35708235 -11.24949091 -3.88161348 0 0 Z M-19.4453125 13.15625 C-20.82264655 17.43527096 -20.97889347 20.86442239 -19.2578125 25.03125 C-16.05351879 28.78800814 -14.63343403 30.002944 -9.5703125 30.65625 C-4.80291666 30.49585164 -2.70851752 28.49904539 0.5546875 25.15625 C2.16898673 21.92765153 2.15039407 18.64631347 1.5546875 15.15625 C-0.18133355 12.13116855 -2.28111387 9.73834931 -5.4453125 8.15625 C-11.84024144 7.51675711 -15.08329972 7.94311278 -19.4453125 13.15625 Z " fill="#000000" transform="translate(141.4453125,80.84375)"/>
<path d="M0 0 C2.87187924 2.87187924 4.43238296 5.61476593 6.25 9.25 C6.25 9.91 6.25 10.57 6.25 11.25 C8.11921867 11.23667633 8.11921867 11.23667633 10.02619934 11.2230835 C21.75398187 11.14209471 33.48170787 11.08208123 45.20970631 11.04275131 C51.23961326 11.02185182 57.26929497 10.99349074 63.29907227 10.94824219 C69.11512664 10.90486921 74.930964 10.8808807 80.74716759 10.87049103 C82.96921901 10.86308431 85.19125819 10.84862125 87.41321754 10.82707977 C90.51898756 10.79815988 93.62385394 10.79403927 96.72973633 10.79589844 C97.65402435 10.78151733 98.57831238 10.76713623 99.53060913 10.75231934 C105.65764973 10.79216431 105.65764973 10.79216431 108.47001648 12.96588135 C109.25 15.25 109.25 15.25 107.25 20.25 C73.92 20.25 40.59 20.25 6.25 20.25 C5.59 22.56 4.93 24.87 4.25 27.25 C0.139137 32.00994664 -3.98327813 35.96735997 -10.45703125 36.453125 C-18.066669 36.56798746 -22.58237521 36.04929633 -28.4375 30.875 C-33.75 24.84459459 -33.75 24.84459459 -33.75 20.25 C-34.80960938 20.28480469 -35.86921875 20.31960937 -36.9609375 20.35546875 C-38.34894252 20.38360399 -39.73696463 20.41090443 -41.125 20.4375 C-41.82367188 20.46263672 -42.52234375 20.48777344 -43.2421875 20.51367188 C-45.2734375 20.54296875 -45.2734375 20.54296875 -48.75 20.25 C-50.75 17.25 -50.75 17.25 -50.4375 14.625 C-49.75 12.25 -49.75 12.25 -48.75 11.25 C-46.21950598 11.17686433 -43.71695163 11.15752473 -41.1875 11.1875 C-40.47658203 11.19201172 -39.76566406 11.19652344 -39.03320312 11.20117188 C-37.27209987 11.21299136 -35.51103964 11.23092737 -33.75 11.25 C-33.49734375 10.17363281 -33.2446875 9.09726563 -32.984375 7.98828125 C-31.23432724 2.68829483 -28.23792789 0.36544713 -23.75 -2.75 C-15.35595955 -6.6900598 -7.49651204 -4.77050766 0 0 Z M-21.75 7.25 C-24.00155742 9.138403 -24.60931131 10.42167557 -25.09765625 13.296875 C-25.35896175 17.29015905 -25.14293325 20.41159389 -22.8125 23.75 C-19.36076209 26.56774523 -17.33880016 27.27706216 -12.96875 27.48828125 C-9.39482569 27.10446191 -7.37355372 25.61759726 -4.75 23.25 C-2.15892716 19.83449489 -2.24711694 16.41674536 -2.75 12.25 C-5.16465993 8.37190981 -6.97570718 6.6084689 -11.125 4.6875 C-15.64566249 4.1419028 -17.83302581 4.9902072 -21.75 7.25 Z " fill="#000000" transform="translate(70.75,122.75)"/>
<path d="M0 0 C4.45603391 3.17063951 6.96231788 5.90579471 9 11 C9 11.66 9 12.32 9 13 C10.24836639 12.99777939 11.49673279 12.99555878 12.78292847 12.99327087 C24.52578849 12.97303259 36.268645 12.95802453 48.01151848 12.94818783 C54.04919026 12.94296076 60.08684801 12.93586627 66.12451172 12.92456055 C71.94702417 12.91372546 77.76952308 12.90772184 83.59204483 12.90512276 C85.81768126 12.90326963 88.04331691 12.89965117 90.2689476 12.89426994 C93.37706882 12.8870513 96.48513352 12.88600941 99.59326172 12.88647461 C100.98508667 12.8810817 100.98508667 12.8810817 102.4050293 12.87557983 C103.6712764 12.87764183 103.6712764 12.87764183 104.96310425 12.87974548 C105.69869505 12.87882369 106.43428585 12.8779019 107.19216728 12.87695217 C109 13 109 13 111 14 C111.75 16.375 111.75 16.375 112 19 C110 22 110 22 108.17654991 22.36914349 C107.06210219 22.36499542 107.06210219 22.36499542 105.92514038 22.36076355 C105.07256149 22.36488754 104.2199826 22.36901154 103.34156799 22.3732605 C102.40433395 22.36247467 101.46709991 22.35168884 100.50146484 22.34057617 C99.02336082 22.34123329 99.02336082 22.34123329 97.51539612 22.34190369 C94.24704408 22.33980789 90.9792003 22.31643935 87.7109375 22.29296875 C85.44935384 22.28737562 83.18776656 22.28310419 80.92617798 22.28010559 C74.96498634 22.26863461 69.00401294 22.23914796 63.04290771 22.20599365 C56.96353101 22.17534133 50.88411915 22.16161061 44.8046875 22.14648438 C32.86969562 22.11428049 20.93486594 22.06305691 9 22 C8.69602295 22.9485083 8.3920459 23.8970166 8.07885742 24.87426758 C6.15032003 30.46174533 2.7874453 33.93440761 -2.25 36.9375 C-8.4585063 38.69657679 -14.24341258 39.10199002 -20.25 36.4375 C-24.30605393 34.11740424 -27.58777145 31.01481637 -30 27 C-30.66015625 24.27734375 -30.66015625 24.27734375 -31 22 C-32.05960938 22.03480469 -33.11921875 22.06960937 -34.2109375 22.10546875 C-35.59894252 22.13360399 -36.98696463 22.16090443 -38.375 22.1875 C-39.07367188 22.21263672 -39.77234375 22.23777344 -40.4921875 22.26367188 C-42.5234375 22.29296875 -42.5234375 22.29296875 -46 22 C-48 19 -48 19 -47.75 16.375 C-47.5025 15.59125 -47.255 14.8075 -47 14 C-43.99686252 12.49843126 -41.20932478 12.90718796 -37.875 12.9375 C-36.59367187 12.94652344 -35.31234375 12.95554687 -33.9921875 12.96484375 C-33.00476562 12.97644531 -32.01734375 12.98804688 -31 13 C-30.835 11.989375 -30.67 10.97875 -30.5 9.9375 C-28.82720884 4.01654135 -23.65538523 0.56599642 -18.5625 -2.4375 C-11.75368712 -3.93211746 -6.18649461 -3.38506309 0 0 Z M-20.875 10.625 C-22.64898487 14.37007916 -22.65990429 17.93905055 -22 22 C-19.95718946 25.4290034 -17.90291913 27.9158558 -14 29 C-8.96170538 28.92002707 -6.97184942 28.80642825 -3.0625 25.5625 C0.18841268 21.52348727 0.35215363 19.19426601 0 14 C-1.46142317 10.42763225 -2.63595915 9.22462095 -5.9375 7.1875 C-11.91915295 4.86808355 -16.17894014 6.55508145 -20.875 10.625 Z " fill="#000000" transform="translate(68,44)"/>
</svg>
